<mxfile host="app.diagrams.net" modified="2021-07-15T09:15:51.019Z" agent="5.0 (Macintosh; Intel Mac OS X 10_15_7) AppleWebKit/537.36 (KHTML, like Gecko) Chrome/91.0.4472.114 Safari/537.36" etag="IqHibd7ivo1SFu9LT4z3" version="14.8.6" type="github">
  <diagram id="C5RBs43oDa-KdzZeNtuy" name="Page-1">
    <mxGraphModel dx="946" dy="513" grid="1" gridSize="10" guides="1" tooltips="1" connect="1" arrows="1" fold="1" page="1" pageScale="1" pageWidth="827" pageHeight="1169" math="0" shadow="0">
      <root>
        <mxCell id="WIyWlLk6GJQsqaUBKTNV-0" />
        <mxCell id="WIyWlLk6GJQsqaUBKTNV-1" parent="WIyWlLk6GJQsqaUBKTNV-0" />
        <mxCell id="WIyWlLk6GJQsqaUBKTNV-7" value="&lt;font style=&quot;font-size: 24px&quot;&gt;Pancake Swap&lt;br&gt;&lt;/font&gt;" style="rounded=1;whiteSpace=wrap;html=1;fontSize=12;glass=0;strokeWidth=1;shadow=0;" parent="WIyWlLk6GJQsqaUBKTNV-1" vertex="1">
          <mxGeometry x="60" y="60" width="650" height="450" as="geometry" />
        </mxCell>
        <mxCell id="VO28HkQS_Ak-Hdc5Bg4K-4" style="edgeStyle=orthogonalEdgeStyle;rounded=0;orthogonalLoop=1;jettySize=auto;html=1;exitX=0.5;exitY=1;exitDx=0;exitDy=0;entryX=0;entryY=0.5;entryDx=0;entryDy=0;" edge="1" parent="WIyWlLk6GJQsqaUBKTNV-1" source="WIyWlLk6GJQsqaUBKTNV-3" target="VO28HkQS_Ak-Hdc5Bg4K-3">
          <mxGeometry relative="1" as="geometry" />
        </mxCell>
        <mxCell id="VO28HkQS_Ak-Hdc5Bg4K-7" value="Provide token A" style="edgeLabel;html=1;align=center;verticalAlign=middle;resizable=0;points=[];" vertex="1" connectable="0" parent="VO28HkQS_Ak-Hdc5Bg4K-4">
          <mxGeometry x="-0.1556" y="1" relative="1" as="geometry">
            <mxPoint as="offset" />
          </mxGeometry>
        </mxCell>
        <mxCell id="VO28HkQS_Ak-Hdc5Bg4K-9" style="edgeStyle=orthogonalEdgeStyle;rounded=0;orthogonalLoop=1;jettySize=auto;html=1;exitX=1;exitY=0.75;exitDx=0;exitDy=0;entryX=0;entryY=0;entryDx=0;entryDy=0;" edge="1" parent="WIyWlLk6GJQsqaUBKTNV-1" source="WIyWlLk6GJQsqaUBKTNV-3" target="VO28HkQS_Ak-Hdc5Bg4K-3">
          <mxGeometry relative="1" as="geometry" />
        </mxCell>
        <mxCell id="VO28HkQS_Ak-Hdc5Bg4K-11" value="farming LP token&amp;nbsp;" style="edgeLabel;html=1;align=center;verticalAlign=middle;resizable=0;points=[];" vertex="1" connectable="0" parent="VO28HkQS_Ak-Hdc5Bg4K-9">
          <mxGeometry x="-0.2059" y="-3" relative="1" as="geometry">
            <mxPoint as="offset" />
          </mxGeometry>
        </mxCell>
        <mxCell id="VO28HkQS_Ak-Hdc5Bg4K-14" style="edgeStyle=orthogonalEdgeStyle;rounded=0;orthogonalLoop=1;jettySize=auto;html=1;exitX=0;exitY=0.5;exitDx=0;exitDy=0;entryX=0.5;entryY=0;entryDx=0;entryDy=0;" edge="1" parent="WIyWlLk6GJQsqaUBKTNV-1" source="WIyWlLk6GJQsqaUBKTNV-3" target="VO28HkQS_Ak-Hdc5Bg4K-13">
          <mxGeometry relative="1" as="geometry" />
        </mxCell>
        <mxCell id="WIyWlLk6GJQsqaUBKTNV-3" value="Stake User" style="rounded=1;whiteSpace=wrap;html=1;fontSize=12;glass=0;strokeWidth=1;shadow=0;" parent="WIyWlLk6GJQsqaUBKTNV-1" vertex="1">
          <mxGeometry x="200" y="10" width="120" height="40" as="geometry" />
        </mxCell>
        <mxCell id="VO28HkQS_Ak-Hdc5Bg4K-38" value="LINKTO" style="edgeStyle=orthogonalEdgeStyle;shape=link;rounded=0;orthogonalLoop=1;jettySize=auto;html=1;exitX=0;exitY=0.5;exitDx=0;exitDy=0;entryX=1;entryY=0;entryDx=0;entryDy=0;" edge="1" parent="WIyWlLk6GJQsqaUBKTNV-1" source="VO28HkQS_Ak-Hdc5Bg4K-0" target="VO28HkQS_Ak-Hdc5Bg4K-3">
          <mxGeometry relative="1" as="geometry" />
        </mxCell>
        <mxCell id="VO28HkQS_Ak-Hdc5Bg4K-0" value="SMART CHAIN" style="rounded=1;whiteSpace=wrap;html=1;fontSize=12;glass=0;strokeWidth=1;shadow=0;" vertex="1" parent="WIyWlLk6GJQsqaUBKTNV-1">
          <mxGeometry x="830" y="90" width="120" height="40" as="geometry" />
        </mxCell>
        <mxCell id="VO28HkQS_Ak-Hdc5Bg4K-31" style="edgeStyle=orthogonalEdgeStyle;rounded=0;orthogonalLoop=1;jettySize=auto;html=1;exitX=0.25;exitY=0;exitDx=0;exitDy=0;" edge="1" parent="WIyWlLk6GJQsqaUBKTNV-1" source="VO28HkQS_Ak-Hdc5Bg4K-1" target="VO28HkQS_Ak-Hdc5Bg4K-3">
          <mxGeometry relative="1" as="geometry" />
        </mxCell>
        <mxCell id="VO28HkQS_Ak-Hdc5Bg4K-33" value="pay fee" style="edgeLabel;html=1;align=center;verticalAlign=middle;resizable=0;points=[];" vertex="1" connectable="0" parent="VO28HkQS_Ak-Hdc5Bg4K-31">
          <mxGeometry y="-2" relative="1" as="geometry">
            <mxPoint x="-30" y="2" as="offset" />
          </mxGeometry>
        </mxCell>
        <mxCell id="VO28HkQS_Ak-Hdc5Bg4K-1" value="Buy User" style="rounded=1;whiteSpace=wrap;html=1;fontSize=12;glass=0;strokeWidth=1;shadow=0;" vertex="1" parent="WIyWlLk6GJQsqaUBKTNV-1">
          <mxGeometry x="800" y="190" width="120" height="40" as="geometry" />
        </mxCell>
        <mxCell id="VO28HkQS_Ak-Hdc5Bg4K-6" style="edgeStyle=orthogonalEdgeStyle;rounded=0;orthogonalLoop=1;jettySize=auto;html=1;exitX=0;exitY=1;exitDx=0;exitDy=0;entryX=0.25;entryY=1;entryDx=0;entryDy=0;" edge="1" parent="WIyWlLk6GJQsqaUBKTNV-1" source="VO28HkQS_Ak-Hdc5Bg4K-3" target="WIyWlLk6GJQsqaUBKTNV-3">
          <mxGeometry relative="1" as="geometry" />
        </mxCell>
        <mxCell id="VO28HkQS_Ak-Hdc5Bg4K-8" value="LP tokens&amp;nbsp;" style="edgeLabel;html=1;align=center;verticalAlign=middle;resizable=0;points=[];" vertex="1" connectable="0" parent="VO28HkQS_Ak-Hdc5Bg4K-6">
          <mxGeometry x="-0.1383" y="-1" relative="1" as="geometry">
            <mxPoint as="offset" />
          </mxGeometry>
        </mxCell>
        <mxCell id="VO28HkQS_Ak-Hdc5Bg4K-10" style="edgeStyle=orthogonalEdgeStyle;rounded=0;orthogonalLoop=1;jettySize=auto;html=1;exitX=0.5;exitY=0;exitDx=0;exitDy=0;entryX=1;entryY=0.25;entryDx=0;entryDy=0;" edge="1" parent="WIyWlLk6GJQsqaUBKTNV-1" source="VO28HkQS_Ak-Hdc5Bg4K-3" target="WIyWlLk6GJQsqaUBKTNV-3">
          <mxGeometry relative="1" as="geometry" />
        </mxCell>
        <mxCell id="VO28HkQS_Ak-Hdc5Bg4K-12" value="CAKE" style="edgeLabel;html=1;align=center;verticalAlign=middle;resizable=0;points=[];" vertex="1" connectable="0" parent="VO28HkQS_Ak-Hdc5Bg4K-10">
          <mxGeometry x="0.0133" relative="1" as="geometry">
            <mxPoint as="offset" />
          </mxGeometry>
        </mxCell>
        <mxCell id="VO28HkQS_Ak-Hdc5Bg4K-29" style="edgeStyle=orthogonalEdgeStyle;rounded=0;orthogonalLoop=1;jettySize=auto;html=1;exitX=1;exitY=0;exitDx=0;exitDy=0;entryX=0.25;entryY=1;entryDx=0;entryDy=0;" edge="1" parent="WIyWlLk6GJQsqaUBKTNV-1" source="VO28HkQS_Ak-Hdc5Bg4K-3" target="VO28HkQS_Ak-Hdc5Bg4K-26">
          <mxGeometry relative="1" as="geometry" />
        </mxCell>
        <mxCell id="VO28HkQS_Ak-Hdc5Bg4K-35" value="Cake" style="edgeLabel;html=1;align=center;verticalAlign=middle;resizable=0;points=[];" vertex="1" connectable="0" parent="VO28HkQS_Ak-Hdc5Bg4K-29">
          <mxGeometry x="-0.2373" y="2" relative="1" as="geometry">
            <mxPoint as="offset" />
          </mxGeometry>
        </mxCell>
        <mxCell id="VO28HkQS_Ak-Hdc5Bg4K-42" value="cake" style="edgeLabel;html=1;align=center;verticalAlign=middle;resizable=0;points=[];" vertex="1" connectable="0" parent="VO28HkQS_Ak-Hdc5Bg4K-29">
          <mxGeometry x="0.1496" y="2" relative="1" as="geometry">
            <mxPoint as="offset" />
          </mxGeometry>
        </mxCell>
        <mxCell id="VO28HkQS_Ak-Hdc5Bg4K-32" style="edgeStyle=orthogonalEdgeStyle;rounded=0;orthogonalLoop=1;jettySize=auto;html=1;exitX=0.25;exitY=0.975;exitDx=0;exitDy=0;entryX=0;entryY=0.5;entryDx=0;entryDy=0;exitPerimeter=0;" edge="1" parent="WIyWlLk6GJQsqaUBKTNV-1" source="VO28HkQS_Ak-Hdc5Bg4K-3" target="VO28HkQS_Ak-Hdc5Bg4K-1">
          <mxGeometry relative="1" as="geometry" />
        </mxCell>
        <mxCell id="VO28HkQS_Ak-Hdc5Bg4K-34" value="get token A" style="edgeLabel;html=1;align=center;verticalAlign=middle;resizable=0;points=[];" vertex="1" connectable="0" parent="VO28HkQS_Ak-Hdc5Bg4K-32">
          <mxGeometry x="0.277" y="2" relative="1" as="geometry">
            <mxPoint x="-27" y="2" as="offset" />
          </mxGeometry>
        </mxCell>
        <mxCell id="VO28HkQS_Ak-Hdc5Bg4K-3" value="Liquid&lt;br&gt;pool" style="ellipse;whiteSpace=wrap;html=1;aspect=fixed;" vertex="1" parent="WIyWlLk6GJQsqaUBKTNV-1">
          <mxGeometry x="470" y="130" width="80" height="80" as="geometry" />
        </mxCell>
        <mxCell id="VO28HkQS_Ak-Hdc5Bg4K-16" style="edgeStyle=orthogonalEdgeStyle;rounded=0;orthogonalLoop=1;jettySize=auto;html=1;exitX=1;exitY=0.5;exitDx=0;exitDy=0;" edge="1" parent="WIyWlLk6GJQsqaUBKTNV-1" source="VO28HkQS_Ak-Hdc5Bg4K-13">
          <mxGeometry relative="1" as="geometry">
            <mxPoint x="270" y="240" as="targetPoint" />
          </mxGeometry>
        </mxCell>
        <mxCell id="VO28HkQS_Ak-Hdc5Bg4K-23" style="edgeStyle=orthogonalEdgeStyle;rounded=0;orthogonalLoop=1;jettySize=auto;html=1;exitX=1;exitY=1;exitDx=0;exitDy=0;entryX=0;entryY=0;entryDx=0;entryDy=0;" edge="1" parent="WIyWlLk6GJQsqaUBKTNV-1" source="VO28HkQS_Ak-Hdc5Bg4K-13" target="VO28HkQS_Ak-Hdc5Bg4K-21">
          <mxGeometry relative="1" as="geometry" />
        </mxCell>
        <mxCell id="VO28HkQS_Ak-Hdc5Bg4K-25" style="edgeStyle=orthogonalEdgeStyle;rounded=0;orthogonalLoop=1;jettySize=auto;html=1;exitX=0;exitY=0.5;exitDx=0;exitDy=0;entryX=1;entryY=0.5;entryDx=0;entryDy=0;" edge="1" parent="WIyWlLk6GJQsqaUBKTNV-1" source="VO28HkQS_Ak-Hdc5Bg4K-13" target="VO28HkQS_Ak-Hdc5Bg4K-20">
          <mxGeometry relative="1" as="geometry" />
        </mxCell>
        <mxCell id="VO28HkQS_Ak-Hdc5Bg4K-39" style="edgeStyle=orthogonalEdgeStyle;rounded=0;orthogonalLoop=1;jettySize=auto;html=1;exitX=0.5;exitY=1;exitDx=0;exitDy=0;entryX=0.5;entryY=0;entryDx=0;entryDy=0;" edge="1" parent="WIyWlLk6GJQsqaUBKTNV-1" source="VO28HkQS_Ak-Hdc5Bg4K-13" target="VO28HkQS_Ak-Hdc5Bg4K-22">
          <mxGeometry relative="1" as="geometry" />
        </mxCell>
        <mxCell id="VO28HkQS_Ak-Hdc5Bg4K-13" value="Use CAKE" style="rhombus;whiteSpace=wrap;html=1;" vertex="1" parent="WIyWlLk6GJQsqaUBKTNV-1">
          <mxGeometry x="140" y="210" width="80" height="80" as="geometry" />
        </mxCell>
        <mxCell id="VO28HkQS_Ak-Hdc5Bg4K-18" value="Convert&lt;br&gt;to money" style="rounded=0;whiteSpace=wrap;html=1;" vertex="1" parent="WIyWlLk6GJQsqaUBKTNV-1">
          <mxGeometry x="270" y="220" width="60" height="40" as="geometry" />
        </mxCell>
        <mxCell id="VO28HkQS_Ak-Hdc5Bg4K-20" value="buy token&lt;br&gt;on platform" style="rounded=0;whiteSpace=wrap;html=1;" vertex="1" parent="WIyWlLk6GJQsqaUBKTNV-1">
          <mxGeometry x="80" y="320" width="60" height="40" as="geometry" />
        </mxCell>
        <mxCell id="VO28HkQS_Ak-Hdc5Bg4K-21" value="get credit&lt;br&gt;discount" style="rounded=0;whiteSpace=wrap;html=1;" vertex="1" parent="WIyWlLk6GJQsqaUBKTNV-1">
          <mxGeometry x="250" y="310" width="60" height="40" as="geometry" />
        </mxCell>
        <mxCell id="VO28HkQS_Ak-Hdc5Bg4K-22" value="play game for reward" style="rounded=0;whiteSpace=wrap;html=1;" vertex="1" parent="WIyWlLk6GJQsqaUBKTNV-1">
          <mxGeometry x="160" y="370" width="60" height="40" as="geometry" />
        </mxCell>
        <mxCell id="VO28HkQS_Ak-Hdc5Bg4K-41" style="edgeStyle=orthogonalEdgeStyle;rounded=0;orthogonalLoop=1;jettySize=auto;html=1;exitX=0;exitY=0;exitDx=0;exitDy=0;entryX=0.5;entryY=1;entryDx=0;entryDy=0;" edge="1" parent="WIyWlLk6GJQsqaUBKTNV-1" source="VO28HkQS_Ak-Hdc5Bg4K-26" target="VO28HkQS_Ak-Hdc5Bg4K-3">
          <mxGeometry relative="1" as="geometry" />
        </mxCell>
        <mxCell id="VO28HkQS_Ak-Hdc5Bg4K-26" value="mint or burn" style="rounded=0;whiteSpace=wrap;html=1;" vertex="1" parent="WIyWlLk6GJQsqaUBKTNV-1">
          <mxGeometry x="500" y="340" width="60" height="40" as="geometry" />
        </mxCell>
      </root>
    </mxGraphModel>
  </diagram>
</mxfile>
